<?xml version="1.0" encoding="UTF-8"?>
<svg version="1.1" viewBox="0 0 2048 2048" width="1280" height="1280" xmlns="http://www.w3.org/2000/svg">
<path transform="translate(0)" d="m0 0h2048v2048h-2048z" fill="#FDFDFC"/>
<path transform="translate(881,839)" d="m0 0h31l20 4 16 7 15 10 13 11 2 1v-26l65-1 1 1v262l-66-1v-25l-5 3-8 7-9 6-10 6-21 8-19 2h-19l-15-2-25-9-11-6-14-10-15-15-10-13-8-13-5-11-5-15-4-16-2-19v-21l2-18 4-18 7-17 8-15 10-14 18-18 18-12 17-8 15-4z" fill="#FE6C02"/>
<path transform="translate(1111,744)" d="m0 0h65l1 207 5-5 12-13 9-11 14-15 12-14 12-13 11-11 9-11 10-12h84l-3 5-16 17-7 8-12 13-7 8-10 11-7 8-14 15-12 14-13 14-7 8-2 2 1 4 9 10 14 15 8 8 7 8 7 7 7 8 11 12 7 8 16 17 12 13 8 8 7 8 8 9 1 3-11 1h-49l-23-1-8-10-13-14-7-8-11-11-7-8-12-13-11-12-9-10-11-12-12-13-5-6-2-1-1 118-15 1h-41l-9-1-1-7v-355z" fill="#FE6C02"/>
<path transform="translate(1644,839)" d="m0 0h26l15 3 8 3 16 8 13 11 9 10 8 16 4 12 2 13 1 12v180l-16 1h-43l-6-1-1-19v-88l-1-38-1-18-4-18-6-12-5-5-10-6-10-3h-14l-13 4-11 6-8 9-7 11-5 13-3 16-2 26-1 122-19 1h-44l-2-3v-259h65l1 1v23l12-9 14-9 16-8 14-4z" fill="#FE6C02"/>
<path transform="translate(916,1220)" d="m0 0h51l12 1 1 1v147l3 22 3 10 7 11 7 7 8 4 11 3h18l16-6 6-4 6-7 6-12 3-11 1-10 1-156h66v139l-2 24-3 26-4 15-8 16-10 14-9 9-13 10-15 7-15 5-17 3-14 1h-19l-14-2-16-4-21-9-13-11-11-11-9-13-6-13-5-15-4-27-2-25v-138z" fill="#FE6C02"/>
<path transform="translate(204,1114)" d="m0 0h259l1 1v49l-1 306-66-1-1-289h-192z" fill="#FE6C02"/>
<path transform="translate(480,754)" d="m0 0h67v288h193l1 2v17l-1 46-1 1-258 1-1-313z" fill="#FE6C02"/>
<path transform="translate(1423,1214)" d="m0 0h34l17 4 21 10 12 9 12 11 6 7-2 5-14 15-9 9-8 7-6 6-6-2-4-5-14-9-10-5-8-2h-11l-10 4-5 7-1 6 4 8 5 4 33 17 22 11 19 13 11 10 6 8 8 16 5 16 1 16-2 14-5 15-8 15-10 11-11 9-14 7-12 4-13 3-27 1-21-3-16-5-12-5-13-8-13-12-10-11 2-4 9-10 9-9 7-8 11-12 1-2 4 1 11 11 13 8 10 5 11 3h17l12-6 4-5 2-4v-8l-6-10-8-7-12-7-21-10-16-9-15-10-11-9-9-9-6-9-7-16-2-11v-21l5-17 5-10 9-10 10-10 11-7 15-6z" fill="#FE6C02"/>
<path transform="translate(1298,1213)" d="m0 0h11l11 2 10 3 3 2-1 5-7 20-10 27-2 6-10-4-6-2h-8l-9 4-8 8-7 15-4 17-2 19-1 17-1 130h-64l-1-14v-247l1-1h55l1 9 1 20 2-3 5-9 7-7 12-9 11-5z" fill="#FE6C02"/>
<path transform="translate(900,900)" d="m0 0h19l14 3 12 5 14 10 8 9 6 10 5 12 3 17v21l-4 18-8 16-9 12-9 8-12 7-13 4-9 1h-16l-17-4-12-6-12-11-9-11-7-14-4-15-1-6v-17l3-17 7-17 9-13 9-9 13-8 12-4z" fill="#FDFDFC"/>
<path transform="translate(1388,846)" d="m0 0h67v260l-1 1h-64l-1-1-1-27z" fill="#FE6C02"/>
<path transform="translate(697,1281)" d="m0 0h13l12 3 14 7 9 7 8 11 4 10 2 15-1 11-1 2 8-3 4-1h15l25 5 24 7 21 8 19 7v1l-15-1-39-3-24-2-21-6-10-4-5-5h-2l-6 11-12 14-8 6-10 5-14 3h-14l-13-3-10-5-12-11-7-11-4-12-1-7v-10l4-14 7-12 8-9 11-7 12-5z" fill="#FE6C02"/>
<path transform="translate(769,623)" d="m0 0h14l9 3 8 6 7 8 4 8 3 12v11l-3 12-6 10-7 7-12 6-5 1h-15l-8-4-5-4-3-1v37l-1 1h-19v-111l5-1h11l3 1 2 7 5-2 5-4z" fill="#FE6C02"/>
<path transform="translate(1363,623)" d="m0 0h13l11 4 7 5h1l1-7 1-1 18 1 1 12-1 68-5 1h-14v-8l-11 6-9 3h-13l-11-4-8-6-6-7-5-10-2-9v-15l5-13 6-8 8-7 8-4z" fill="#FE6C02"/>
<path transform="translate(1419,737)" d="m0 0 12 1 12 5 9 7 9 14 2 8v20l-4 9-4 6-10 10-10 5-4 1h-19l-13-5-9-8-5-7-5-12-1-6v-9l2-11 6-11 9-9 12-6z" fill="#FE6C02"/>
<path transform="translate(858,623)" d="m0 0h18l10 3 8 4 7 6 6 10 4 13v12l-3 1h-62l3 9 8 7 3 1h15l6-2 7-4 6 1 10 5-2 5-10 8-10 4-13 2-13-2-12-5-9-8-5-8-3-9-1-7v-10l3-12 7-11 11-8z" fill="#FE6C02"/>
<path transform="translate(1042,623)" d="m0 0h17l10 3 11 7 6 7 6 12 1 5v14l-29 1h-35l1 6 4 6 10 5 11 1 11-4 3-3h5l12 6-1 4-5 5-10 6-7 3-5 1h-9l-13-3-12-6-7-7-6-11-2-9v-16l4-11 4-6 5-6 9-6z" fill="#FE6C02"/>
<path transform="translate(591,596)" d="m0 0h22l13 1 1 19-1 1h-38l-1 19h39v20h-39l1 28 32 1 6 1v19l-4 1h-54l-1-4v-105z" fill="#FE6C02"/>
<path transform="translate(1148,623)" d="m0 0h14l8 4 7 7 4 9 1 10v44l-1 9h-19l-2-54-3-6-3-3-9-1-6 3-5 6-3 9-1 46h-19l-1-4v-77l10-1h9l1 1v7l11-6z" fill="#FE6C02"/>
<path transform="translate(1235,623)" d="m0 0h19l12 5 11 8 2 2-1 4-11 7-6-1-8-5-3-1h-11l-10 4-4 3h-2l-2 5-3 7v8l4 10 7 6 8 3h11l12-5 1-1h6l11 8v3l-10 8-12 5-5 1h-17l-13-4-9-6-9-10-4-8-2-8v-12l5-14 6-9 14-9z" fill="#FE6C02"/>
<path transform="translate(650,624)" d="m0 0h9l5 5 11 16 3-1 10-14 4-5 23-1-4 7-12 17-9 12 1 6 12 16 14 21v2l-10 1h-11l-7-10-7-9-4-7-4 2-13 18-5 6-20-1v-3l10-13 13-19 5-7-2-5-14-18-8-12-1-3z" fill="#FE6C02"/>
<path transform="translate(1109,743)" d="m0 0h68l2 1v2l2 1-1 9v12l1 3 1 52 1 27 1 48 1 11 2 4 2 1 1 11 6 2 2 2-10 11-9 11h-2l-1-7v-200l-65 1v362h65v-111l1-7 4 2 4 5-2 6h-2v10l5 6 4 4-1 5 2 3-5 11-1 7h-1l-1 27-2 21-2 5h-2v7l-1 1h-63l-4-2-1-278v-76z" fill="#FFFDF4"/>
<path transform="translate(1450,623)" d="m0 0h15l10 4 10 7-2 5-9 10-5-2-6-4-6-1-5 4 1 4 16 8 11 8 6 9 1 9-3 10-8 9-11 4h-13l-11-4-6-4-4-5 2-5 8-7 5 1 8 4h10l3-3v-5l-21-12-10-10-4-8 1-10 4-6 9-8z" fill="#FE6C02"/>
<path transform="translate(533,750)" d="m0 0 10 1 5 1 2 10-1 41v71l1 17v103l-1 10v32l5 2 6 1h176l6 2 1 4-1 59-2 6-3 2-175-1h-79l-5-2v-355l2-2 9-1h43zm-53 4v42l1 313 258-1 1-1 1-46v-17l-1-2h-193v-288z" fill="#FFFDF4"/>
<path transform="translate(1402,839)" d="m0 0h19l5 1 1 2 3 1 23 1 3 1 1 35 2 9 1 16 1 73v80l-2 25-1 12v12l-4 4h-64l-3-2-1-3-1-14v-228l1-19 8-3zm-14 7v233l1 27 1 1h64l1-1v-260z" fill="#FFFDF4"/>
<path transform="translate(691,1303)" d="m0 0h10v3l-10 3-4 3-3 16v14l3 10 5 3 10 1-4-8-1-9 4-11 7-6 5-2h7l6 3 3 5 2 8 1 13-2 11-4 6-6 4-7 2h-22l-9-3-7-6-5-12-3-9-1-6v-9l3-9 6-8 12-6z" fill="#FDFDFC"/>
<path transform="translate(950,623)" d="m0 0h14l1 4-4 13-10 1-5 6-1 5-1 14-1 39-1 1h-17l-2-2v-80h11l6 1v7l3-1 6-6z" fill="#FE6C02"/>
<path transform="translate(1293,1211)" d="m0 0h17l11 1 1 2 4 1 8 3 1 4-6 17-6 16-3 11-4 6-2 8-7-1-16-4-12 7-7 9-5 10-1 3h-2l-3 22v15l-1 3-1 99-1 40-44 1-8 1h-10l-6-2v-170l1-94 7-4 28 1h7l3-1h9l9 8v2l13-4 10-5 8-2h5l1-2zm5 2-14 4-11 6-13 11-7 9-2 6h-1l-1-20-1-9h-55l-1 1v247l1 14h64l1-130 2-28 3-18 5-14 5-9 8-8 8-3h8l12 4 4 2 7-20 10-27 3-8v-3l-9-4-7-2-8-1z" fill="#FEFDF4"/>
<path transform="translate(1039,838)" d="m0 0h4l2 5 1 31 2 15h-2l1 4 1 34 1 51v51l-1 65-2 6-1 9-68-1-6-9-3-3-1 3-3-1-7 3-3 7-14 4h-11l-13 2-9 1h-22l-13-2v-1l15 1h19l19-2 21-8 10-6 14-10 5-5h3v25h57l9 1-1-262h-65v26l-4-2-12-10-18-11 1-2 6 2 4 4h2l4 4 8 2h5l2-7 1-7h8v-2l7 1h43z" fill="#FEFDF4"/>
<path transform="translate(766,642)" d="m0 0h12l8 5 5 6 3 7v9l-4 10-4 5-10 5h-9l-7-3-7-6-4-8-1-9 3-9 7-8z" fill="#FDFDFC"/>
<path transform="translate(1366,642)" d="m0 0h13l7 3 6 5 3 5 1 4v11l-4 9-5 6-7 3h-13l-8-5-6-7-2-6v-9l4-10 4-5z" fill="#FDFDFC"/>
<path transform="translate(974,624)" d="m0 0h20v80l-1 1-10 1h-9l-1-56v-20z" fill="#FE6C02"/>
<path transform="translate(1299,624)" d="m0 0h17l1 1v81h-10l-8 1-1-1-1-10v-71z" fill="#FE6C02"/>
<path transform="translate(739,1378)" d="m0 0h7l10 4 13 10 12 12 7 8 13 16 12 15 9 14-1 2-8-7-16-13-17-12-12-9-10-9-10-11-6-9-3-7z" fill="#FE6C02"/>
<path transform="translate(804,1192)" d="m0 0 2 2-8 14-8 13-15 29-10 14-11 12-10 6h-5l1-12 4-10 11-16 14-17 8-8 7-8 17-17z" fill="#FE6C02"/>
<path transform="translate(706,1392)" d="m0 0 5 1 6 9 6 17 5 24 4 31 1 18v11l-2-1-9-27-12-30-5-19-2-15v-17z" fill="#FE6C02"/>
<path transform="translate(670,1387)" d="m0 0 4 2 1 13-5 19-9 24-9 19-9 16-7 12h-2l1-9 5-18 8-40 5-13 8-17z" fill="#FE6C02"/>
<path transform="translate(641,1362)" d="m0 0 4 1v7l-7 9-12 12-18 13-19 12-23 12-2 1h-6l5-5 16-15 15-16 10-10 16-12 11-6z" fill="#FE6C02"/>
<path transform="translate(860,1271)" d="m0 0h6l-4 3-23 11-16 9-14 8-15 7-14 4-6 1h-14l-1-4 7-8 15-9 21-8 21-6 31-7z" fill="#FE6C02"/>
<path transform="translate(608,1322)" d="m0 0 12 1 11 3 4 3-2 4-10 5-11 3-13 2h-34l-42-2-2-2 51-11 17-4z" fill="#FE6C02"/>
<path transform="translate(713,1155)" d="m0 0 2 3 1 25 3 34v20l-4 19-4 8-3 3-4-2-3-7-1-6v-29l3-23 9-43z" fill="#FE6C02"/>
<path transform="translate(546,1243)" d="m0 0 6 1 21 9 35 12 17 9 11 8 9 10 1 3-1 1h-16l-13-5-20-11-24-16-13-10-12-8z" fill="#FE6C02"/>
<path transform="translate(618,1176)" d="m0 0 5 5 9 13 11 14 12 16 8 13 7 14 3 8v12l-3 1-11-7-9-11-5-10-9-17-9-21-7-20-2-6z" fill="#FE6C02"/>
<path transform="translate(1519,843)" d="m0 0 61 2 1 4 3 1v7l3 1 9-3 9-5 10-3-3 3-13 7-11 8-8 6h-1v-24l-65-1 1 259 1 2h63v-122l2-26h1v47l-1 51v33l1 4-1 13-6 2-41 1-2 1h-15l-5-3v-262l1-2z" fill="#FFFDF4"/>
<path transform="translate(1077,1218)" d="m0 0h34l32 1v3l3 1v7l-1 8 1 4 1 24v97l-3 25-4 10-1 15-4 9-2 6-3 5-1-3 5-12 3-16 3-27 1-16 1-139h-66v156h-1l-1-52v-94l1-11z" fill="#FFFDF4"/>
<path transform="translate(207,1112)" d="m0 0h250l7 1 1 1v111l1 36 1 23v14l-1 33-1 138-1 2h-15v-1h14v-355h-165l-94-1v66h-1v-67z" fill="#FFFDF4"/>
<path transform="translate(876,623)" d="m0 0h12l11 4 4 4 8 17 2 22-3 6-5 1-5-1-4 1 4 4 5 3 2 4-3 5-1-2 1-2-9-3-4-2-5 1-6 4-5 1h-15l-7-4-6-6-1-8 4-1h60v-12l-4-13-7-11-8-6-10-4-5-1z" fill="#FFFDF4"/>
<path transform="translate(589,592)" d="m0 0h20l11 1 7 2 1 7v10l-2 2v-17h-59l1 109 57-1 1-19-38-1-1-1v-28h39v-20h-39v-19h1l1 11 4 2v2l10 1h18l6 1 2 7 1 13-2 3h-2v12l-5-1v-5l-5-3v-2l-28-1 2 12 2 3 2 7h12l8 4 11 1 2 1 1 5v12l-1 5-31 1h-26l-4-2-1-15v-95l13-3z" fill="#FFFDF4"/>
<path transform="translate(922,1215)" d="m0 0h9l2 1 25 2 21 1 2 2v100l2 31v12l-1 7 1 11 3 5 4 13 6 9 1 1v6l-6-5-6-10-4-15-2-17v-147l-12-1h-55l1 138 3 34 4 22 4 11-1 3-6-13-3-16-4-41v-135l2-6z" fill="#FEFDF4"/>
<path transform="translate(1147,620)" d="m0 0h10l11 4 10 9 1 2 3 1 5 9v7l-3 1-1 52-1 3-9 1-2-1-10-1-1-3-1-51-1-5-4-2-4-3h-6l-2 5-4 5-2 6-1 22-1 6v9l-2 9-1 2-5 2h-10l-7-2v-83l7-1h16l15-1zm1 3-18 9v-7l-1-1h-9l-10 1v77l1 4h19l1-46 3-9 6-7 5-2 9 1 5 6 1 3 2 54h19l1-9v-44l-2-13-4-7-9-8-5-2z" fill="#FFFDF4"/>
<path transform="translate(951,621)" d="m0 0h10l5 2v2h6l2-1v82l19-2 1-80 3 3 1 12v14l-1 19-1 5v14l2 7-1 4-3 5-10 1h-8l-3-1-1-11-1-66-6 3-3 8-10 1-6 12v22l-1 28-1 3-5 1h-12l-5-2-1-47v-25l1-11h17l10-1zm-1 2-2 4-4 2-1 2-3 1v-7l-6-1h-11v80l2 2h17l1-1 1-39 1-14 2-7 4-4 10-1 4-13-1-4z" fill="#FFFDF4"/>
<path transform="translate(613,1156)" d="m0 0h2l3 12 7 12 8 11v2h2l4 7 6 8 2 1v2h2l2 4 5 5 6 9v2l2 1 5 8 6 15 4 8-1 8-3 3-8 1v-2l-12-1-2-3 2-6-4-4-7-14 1-2 5 8 3 5 7 9 10 6h3l-1-12-7-17-11-18-10-13-13-17-10-14-2-3 2 9 8 22 1 5-3-4-6-13-5-14-4-7-1-9 1-9z" fill="#FFFDF4"/>
<path transform="translate(622,1319)" d="m0 0h9v2l5 2 2 4-2 5h-3v-4l-8-3-12-2-16 1-18 3-25 6-28 6-3 1 42 2h34l17-3 10-2-2 2-10 5h-11l-5 3-4 1-17-1-19-1-19-2-1-1-18-1-2-1 1-3 12-3 1-4 3-2h5l4 2 14-1 15-4 4-2 29-4z" fill="#FFFDF4"/>
<path transform="translate(204,1180)" d="m0 0h192l1 17v272h52v1h-53l-1-249-1-39h-171l-7 1-11-1z" fill="#FFFDF4"/>
<path transform="translate(867,913)" d="m0 0 2 1-7 7-7 9-4 10-5 8-4 15v23l4 9 2 9 4 9 12 18 3 5 8 5 3 3h7l14 4 8 2h18l14-5 9-6 6-1-5 4-10 6-13 4-9 1h-16l-17-4-12-6-12-11-9-11-7-14-4-15-1-6v-17l3-17 7-17 9-13z" fill="#FFFDF4"/>
<path transform="translate(646,1340)" d="m0 0h1l3 14 6 12 10 11 5 4 5 2-3 3-1 2-5 2-6 7-2 2 1-6 5-5 1-4-1-5-4-2-6-7-3-5v-2l-4 2-3 7-2 1 2-10-7 1-11 4-11 7-14 11-16 16-7 8-9 9-11 9 7-1 14-7 2 1-5 3h-2l-2 4-3 3-5 2-4 1h-8l1-5 11-9 5-6 8-7 22-22 12-11 10-7 14-5 3-1v-2l8-3-1-7z" fill="#FFFDF4"/>
<path transform="translate(1433,1273)" d="m0 0h11l10 3 2 2-12-2-17 5-4 5 1 7 4 4 8 4 9 7 10 5 19 10 7 4v2h2l4 5h-3l-23-12-26-13-12-7-5-6-2-7 3-7 4-5z" fill="#FFFDF4"/>
<path transform="translate(980,592)" d="m0 0h8l7 6 2 4-1 7-4 6-3 2h-12l-6-9-1-6 3-5z" fill="#FE6C02"/>
<path transform="translate(713,1146)" d="m0 0 3 2 1 6 1 34 3 35v9l-1 15 3 5 1 4-2 6-10 5-6 1 6-7 4-13 2-11v-20l-3-34-1-25-1-1-10 49-2 17v29l1 9-2-2-1-4-1-23 2-22 4-23 6-29 2-10z" fill="#FEFDF4"/>
<path transform="translate(1044,640)" d="m0 0h14l8 4 7 7 1 3-1 1h-42l-2-1 1-4 9-8z" fill="#FFFDF4"/>
<path transform="translate(865,639)" d="m0 0 9 1 12 6 5 6-1 3h-43v-4l7-7z" fill="#FFFDF4"/>
<path transform="translate(1303,592)" d="m0 0h7l7 5 3 5v7l-6 7-3 1h-8l-7-6-2-3v-6l4-6z" fill="#FE6C02"/>
<path transform="translate(783,915)" d="m0 0 1 3-5 13-4 21-1 12v21l2 19 6 23 6 15 6 11 10 14 12 13 8 8 17 11 8 4 23 8v1h-9l-12-6-13-5-6-4v-2l-4-2-8-5-7-8-5-5-2-4-3-1v-2l-4-2-6-9-4-7-7-14-8-28-3-25v-13l2-19 5-24z" fill="#FFFDF4"/>
<path transform="translate(1233,643)" d="m0 0 3 1h-2l-2 5-5 5-3 4 1 13 2 7 3 3v2l5 1 2 2h11l8-3 5-5 10 2 6 5 3 5-1 4h-3l2-3-11-8h-6l-10 5-3 1h-11l-10-4-7-8-3-8v-8l6-12 7-5z" fill="#FFFDF4"/>
<path transform="translate(1397,623)" d="m0 0h9l10 1 3 6v12l-2 8 1 8v42l-2 7h-27l-12 1h-15l-3-2h17l9-3 8-5h3v8l18-1 1-80h-13l-5-1z" fill="#FFFDF4"/>
<path transform="translate(851,673)" d="m0 0h11l9 3 13-2h3l2 2-1 4-5 2v2l-7 3-16-1-5-3-3-3z" fill="#FDFDFD"/>
<path transform="translate(1457,641)" d="m0 0 7 2 8 5h3v8l1 3 4 2 5 6 3 10v10l-2 5-1-3 1-10-3-8-5-6-9-6-16-8-2-2 1-4z" fill="#FFFDF4"/>
<path transform="translate(680,1307)" d="m0 0 2 1-8 11-1 4v8l3 21 3 8 1 4 5 2 1 3 5 1-4 1-8-4-5-6-6-16-2-9v-9l3-9 6-8z" fill="#FFFDF4"/>
<path transform="translate(1675,929)" d="m0 0 2 4 2 11 1 18 1 38v107h65v1l-15 1-39 1-8 1-5-3-1-126-1-34-2-14z" fill="#FFFDF4"/>
<path transform="translate(713,1387)" d="m0 0 4 1v3l4 13 4 8 1 11 2 6 2 20 3 22 2 7v27l-2 1-3-2-1-8 2 3 1 3-1-28-5-37-6-25-5-12-4-6-5-1-3 1 1-3-11-1v-1z" fill="#FFFDF4"/>
<path transform="translate(1297,612)" d="m0 0 6 4h11v5l-1 1 5 2 1 19-1 64-2 2-10-1h-9l-1-8v-76l6-2-2-5-3-3zm2 12-2 2v70l1 10 3 1 11-1h5v-81l-1-1z" fill="#FFFDF4"/>
<path transform="translate(542,1240)" d="m0 0 7 1 7 2 10 2 10 6 3 4-9-2-20-9h-3v2l5 2 12 9 15 11 19 12 18 10 4 3-5-1-17-9-12-6-8-6-16-11-6-5-5-3-9-9z" fill="#FFFDF4"/>
<path transform="translate(1322,1055)" d="m0 0 7 6 24 24 3 2v2h2l5 5 5 6 3 9-4 1h-77l-6-2 1-2 23 1h49l10-1-7-9-8-8-7-8-10-10-7-8-6-6z" fill="#FEFDF4"/>
<path transform="translate(1284,842)" d="m0 0 2 1 70 2-1 4-1-2h-83l-14 17-4 3 1-16 6-5 19-2z" fill="#FFFDF4"/>
<path transform="translate(1071,627)" d="m0 0 6 1 5 4v2h3l7 9 5 13v10l-3 1v5l-6 2-5-1-7 1-2 1-12 1h-11l-8-3-14-1v-1h64l-1-14-3-10-7-11-9-7z" fill="#FFFDF4"/>
<path transform="translate(1458,674)" d="m0 0 5 2 5 3v5l-4 4h-10l-8-4-5-1-8 7-1 4 5 6 11 5 4 1 13 1v1h-14l-11-2-6-4v-2h-2l-2-5-1-10 6-5 3-1h8l6 3h8v-5z" fill="#FFFDF4"/>
<path transform="translate(713,1320)" d="m0 0h7l6 3 3 5 2 8 1 13-2 11-3 3 2-7v-18l-2-9-4-4-4-1-2-2-3 1-5 5-5 4-3 9 4 8v2l2 1 1 3-3 3h-15l-4-4 1-2 5 3 10 1-4-8-1-9 4-11 7-6z" fill="#FFFDF4"/>
<path transform="translate(1439,1209)" d="m0 0 14 1v2h8l7 2v2l7 1 6 3-3 1-8-3-13-3h-34l-14 3-17 7-11 8-14 14v-3l10-10 6-7 10-6 7-3 7-2 4-1 19-4z" fill="#FFFDF4"/>
<path transform="translate(734,623)" d="m0 0h23l5 1 7-1-4 2-8 5-4 3-3-1-1-7h-19v111l14-1h6v2l-13 1-2 1v-2h-6l-1-87v-25z" fill="#FFFDF4"/>
<path transform="translate(896,833)" d="m0 0 15 1 12 3 3 3h8l3 4 6 1 1 3-5-1-10-4-17-3h-31l-14 2-12 4-3-1 10-4 13-3 12-1 5-3z" fill="#FFFDF4"/>
<path transform="translate(790,1288)" d="m0 0 3 1-16 7-11 7-6 7v3l14 1v1l-14 1-4 3-5-12-8-10-4-4 7 2 9 7h9v-2h2l2-4 4-3 11-2z" fill="#FEFDF4"/>
<path transform="translate(579,1255)" d="m0 0h7l3 2 7 2 16 6 7 2 5 5 5 3 6 1 6 4 6 7 3 2v7l-7 2h-12l-11-4 3-1 6 2h16l-4-7-7-7-13-8-16-8-26-9z" fill="#FFFDF4"/>
<path transform="translate(966,1476)" d="m0 0 5 1 14 6 19 4 13 1h15l21-2 17-4 8-3 3 1-10 5-5 4-13 2-9 1-4-1-15 1-3-1-19-2-22-5-12-5z" fill="#FFFDF4"/>
<path transform="translate(690,659)" d="m0 0 2 1 3 6 9 12 9 7 4 9 2 6-1 6-4 1-17 1-3-2 1-3 1 2h21l-10-16-12-16-6-9z" fill="#FFFDF4"/>
<path transform="translate(1383,1398)" d="m0 0 9 2 4 3v2h2l5 6 5 4 17 8 10 3 1 1h12l8-4 3 1-10 5h-17l-14-4-17-10-10-9-5-5-3-1z" fill="#FFFDF4"/>
<path transform="translate(1028,672)" d="m0 0 6 3 6 7 7 3 13 2h2l2-4 6-3 4 3-6 2-6 4-7 2-11-1-10-5-6-9z" fill="#FEFDF4"/>
<path transform="translate(1050,644)" d="m0 0h7l6 5 3 5h-26l2-7z" fill="#FDFDFD"/>
<path transform="translate(700,1277)" d="m0 0 12 2 6 2 7 3 8 2 3 5-5-2-12-5-9-2h-13l-12 3-16 8-8 7-5 5 2-4 6-8 6-5 13-5 7-2z" fill="#FFFDF4"/>
<path transform="translate(1439,741)" d="m0 0 5 1 7 2 5 4 5 7 4 11 1 6-1 16-3 10-1-3 1-3v-20l-3-10-9-13-9-6z" fill="#FFFDF4"/>
<path transform="translate(758,1323)" d="m0 0h1l1 5v10h7l13 2 7 2 26 6-4 1-25-5h-15l-12 3 1-13z" fill="#FFFDF4"/>
<path transform="translate(759,645)" d="m0 0h2l-2 4-3 3-4 11 2 6 4 9 6 7v2l3 1-6-1-8-7-4-8-1-9 3-9 7-8z" fill="#FFFDF4"/>
<path transform="translate(1511,1354)" d="m0 0 6 5 3 5v2h2v2h2l6 12 2 12v22l-4 18-2 2 2-10 2-14-1-16-5-16-8-16-5-6z" fill="#FFFDF4"/>
<path transform="translate(1250,660)" d="m0 0 7 3-2 7-3 2-13-1-1-5 5-4z" fill="#FFFDF4"/>
<path transform="translate(769,1278)" d="m0 0h6l1 4-4 6-5 3h-7l-2-2 1-5 8-5z" fill="#FFFDF4"/>
<path transform="translate(996,607)" d="m0 0h1v10l-4 5 1 2-7 1-13-1 4-1-1-6 12-1 5-5z" fill="#FFFDF4"/>
<path transform="translate(1390,1353)" d="m0 0 5 2 16 10 21 11 16 8 1 2-16-4-8-6-5-3-6-4-10-4-4-4-8-5z" fill="#FFFDF4"/>
<path transform="translate(676,679)" d="m0 0 3 1 6 10 7 8-1 2-8-7-6-6-6 3-7 8-3 6-5 2 6-9 12-16z" fill="#FEFDF4"/>
<path transform="translate(741,1372)" d="m0 0 2 1v3l5 1 8 4-2 1-8-3-7-1 5 13 8 10 9 10h-3l-16-16-4-9-1-6-3-2z" fill="#FFFDF4"/>
<path transform="translate(1720,862)" d="m0 0 4 2 12 12 3 7 4 10 2 10 1 11v13h-1l-2-19-3-12-5-13-6-10-9-10z" fill="#FFFDF4"/>
<path transform="translate(606,666)" d="m0 0 9 1 2 1-2 4-5 3-5 2-5-1-3-4 4-4z" fill="#FFFDF4"/>
<path transform="translate(1246,620)" d="m0 0 16 2 8 4 8 7 2 4-1 4-3-5-10-7-12-5h-19l-8 1 2-2z" fill="#FFFDF4"/>
<path transform="translate(967,929)" d="m0 0 4 4 7 16 3 17v21l-4 18-3 7-1-3 4-12 2-19-2-21-6-18-4-8z" fill="#FFFDF4"/>
<path transform="translate(790,1364)" d="m0 0 29 2 52 4-6-2 4-1 5 2v3h-9l-9-1-20-1-5-1h-15l-22-3z" fill="#FFFDF4"/>
<path transform="translate(1352,670)" d="m0 0 5 5v2h2l5 5 3 1 16 1 5-3 2-1-2 4-8 4h-13l-8-5-6-7z" fill="#FEFDF4"/>
<path transform="translate(1478,1481)" d="m0 0h3v2l-9 4-11 1-9 3h-11l-18-1-11-2v-1l27 1 17-1 17-4z" fill="#FFFDF4"/>
<path transform="translate(846,847)" d="m0 0 4 1-15 8-14 10-16 16v-3l6-9 9-7 10-7 9-6z" fill="#FFFDF4"/>
<path transform="translate(900,900)" d="m0 0h19l14 3 12 5 14 10 8 9-1 2-8-8-13-9-6-4-14-5-25-2z" fill="#FFFDF4"/>
<path transform="translate(804,1188)" d="m0 0h6l-2 6-4 4 1-5-6 4-20 20-7 8-4 3 2-4 5-6 4-5 8-7 12-12z" fill="#FFFDF4"/>
<path transform="translate(643,1444)" d="m0 0h1l-1 11-6 25-3 12h2l1-3 1 2-4 7-4 1 1-8 3-13 3-7z" fill="#FFFDF4"/>
<path transform="translate(1629,899)" d="m0 0h14l4 2h-17l-13 4-5 4-9 6-2 4h-2v2h-3l2-5 7-7 16-8z" fill="#FFFDF4"/>
<path transform="translate(867,1268)" d="m0 0 5 1-4 4-16 7h-2l-1 2-8 4-3-1 15-8 11-5-16 1v-1z" fill="#FFFDF4"/>
<path transform="translate(1367,621)" d="m0 0 18 2 9 4 1-3 2 1-1 7-2 1-7-5-11-4-13-1z" fill="#FFFDF4"/>
<path transform="translate(979,590)" d="m0 0h11l6 3 2 3v11h-1l-3-9-6-5h-8l-9 6 2-4 4-3h2z" fill="#FFFDF4"/>
<path transform="translate(807,640)" d="m0 0 3 1 2 1v3h2l2 5v4h-2l2 11-2 12h-1v-17l-3-12-3-6z" fill="#FFFDF4"/>
<path transform="translate(1041,620)" d="m0 0h7l2 1 14 2v1h-22l-11 4-6 4h-3l5-5 11-5z" fill="#FFFDF4"/>
<path transform="translate(648,623)" d="m0 0h14l2 1v2l3 1 2 3 2 9-5-5-5-8-2-1h-20l-1 2v-3z" fill="#FFFDF4"/>
<path transform="translate(1247,966)" d="m0 0 4 4 3 6-1 5-6-5-3-4 1-4z" fill="#FFFDF4"/>
<path transform="translate(1498,1284)" d="m0 0 2 1-5 5-3 6-8 4-3-1-7-9h3l4 5 5 1z" fill="#FFFDF4"/>
<path transform="translate(1115,603)" d="m0 0h3l2 11 1 3-5 2-2-1v-12z" fill="#FFFDF4"/>
<path transform="translate(1449,1386)" d="m0 0 5 2 8 7 6 10v8l-2 2-1-9-2-4v-3h-2v-2l-4-2-5-6z" fill="#FFFDF4"/>
<path transform="translate(1239,641)" d="m0 0h11l10 5 3 2h6l-3 4-6-1-5-5-8-3h-11z" fill="#FFFDF4"/>
<path transform="translate(750,698)" d="m0 0 4 1 7 5-2 1-7-1-1 31h-1z" fill="#FFFDF4"/>
<path transform="translate(872,647)" d="m0 0h7l5 6v1h-11z" fill="#FDFDFD"/>
<path transform="translate(761,1234)" d="m0 0 2 1-10 13-4 4 2-5 2-8z" fill="#FFFDF4"/>
<path transform="translate(1128,1433)" d="m0 0 1 2-4 7-2 6-7 8-4 3-2-1 8-9 8-13z" fill="#FFFDF4"/>
<path transform="translate(1435,821)" d="m0 0 3 1-3 3-14 1-3 1v-2l-10-2 4-1h19z" fill="#FFFDF4"/>
<path transform="translate(691,1303)" d="m0 0h10v3l-10 3-5 3 3-6-2-2z" fill="#FFFDF4"/>
<path transform="translate(1511,1240)" d="m0 0 5 2 10 8v7l-5-5-9-10z" fill="#FFFDF4"/>
<path transform="translate(1252,867)" d="m0 0v3l-12 12-1-3 4-6 6-5z" fill="#FFFDF4"/>
<path transform="translate(1074,683)" d="m0 0h7l7 4-1 6-3 2 2-6-7-2-5-3z" fill="#FFFDF4"/>
<path transform="translate(638,698)" d="m0 0v3l-2 3 17 1 3 2-25-1v-3l5-3z" fill="#FFFDF4"/>
<path transform="translate(674,1389)" d="m0 0 3 4 1 6-3 8-2 8-1-4 2-9z" fill="#FFFDF4"/>
<path transform="translate(1458,620)" d="m0 0 5 1 2 2-15 1-4 1 3-3z" fill="#FFFDF4"/>
<path transform="translate(1361,1321)" d="m0 0 3 4 4 6 1 3-4-1-4-8z" fill="#FFFDF4"/>
<path transform="translate(672,638)" d="m0 0 7 4-2 4-4-2-2-5z" fill="#FFFDF4"/>
<path transform="translate(830,1354)" d="m0 0h7l10 5-3 1-14-5z" fill="#FFFDF4"/>
<path transform="translate(1491,1475)" d="m0 0 2 1-5 4-3 2-4-1 2-2z" fill="#FFFDF4"/>
</svg>
